<svg xmlns="http://www.w3.org/2000/svg" xmlns:xlink="http://www.w3.org/1999/xlink" width="516.337" height="496" viewBox="0 0 516.337 496">
  <defs>
    <linearGradient id="linear-gradient" x1="0.5" y1="0.272" x2="0.5" y2="1" gradientUnits="objectBoundingBox">
      <stop offset="0" stop-color="#fff"/>
      <stop offset="1" stop-color="#f3f9ff"/>
    </linearGradient>
  </defs>
  <g id="Group_110732" data-name="Group 110732" transform="translate(-877.663 -101)">
    <circle id="Ellipse_745" data-name="Ellipse 745" cx="248" cy="248" r="248" transform="translate(898 101)" fill="url(#linear-gradient)"/>
    <g id="Group_109508" data-name="Group 109508" transform="translate(-1107.264 -10.59)">
      <g id="Group_109505" data-name="Group 109505" transform="translate(2125.665 198.09)">
        <g id="Group_512" data-name="Group 512" opacity="0.4">
          <rect id="Rectangle_2218" data-name="Rectangle 2218" width="65.432" height="55.74" transform="translate(223.306 55.74) rotate(180)" fill="#cbac8b"/>
          <rect id="Rectangle_2219" data-name="Rectangle 2219" width="65.432" height="55.74" transform="translate(256.022 55.74) rotate(180)" fill="#dabea0"/>
          <path id="Path_1432" data-name="Path 1432" d="M593.45,645.258h10.366l-.912-3.018.912-2.15H593.45Z" transform="translate(-435.536 -603.651)" fill="#dabea0"/>
          <path id="Path_1433" data-name="Path 1433" d="M674.78,586.578h10.37l-.916-3.013.916-2.154H674.78Z" transform="translate(-484.19 -569.327)" fill="#cbac8b"/>
          <path id="Path_1434" data-name="Path 1434" d="M659.346,581.41H648.98l.912,3.014-.912,2.154h10.366Z" transform="translate(-468.756 -569.327)" fill="#dabea0"/>
          <path id="Path_1435" data-name="Path 1435" d="M822.206,653.98H811.84l.912,3.013-.912,2.154h10.366Z" transform="translate(-566.184 -611.775)" fill="#cbac8b"/>
          <rect id="Rectangle_2220" data-name="Rectangle 2220" width="18.831" height="7.567" transform="translate(232.908 3.781)" fill="#fff"/>
          <rect id="Rectangle_2221" data-name="Rectangle 2221" width="65.432" height="55.74" transform="translate(107.754 55.74) rotate(180)" fill="#cbac8b"/>
          <rect id="Rectangle_2222" data-name="Rectangle 2222" width="65.432" height="55.74" transform="translate(140.474 55.74) rotate(180)" fill="#dabea0"/>
          <path id="Path_1436" data-name="Path 1436" d="M305.84,645.258h10.37l-.916-3.018.916-2.15H305.84Z" transform="translate(-263.478 -603.651)" fill="#dabea0"/>
          <path id="Path_1437" data-name="Path 1437" d="M387.17,586.578h10.37l-.912-3.013.912-2.154H387.17Z" transform="translate(-312.132 -569.327)" fill="#cbac8b"/>
          <path id="Path_1438" data-name="Path 1438" d="M371.736,581.41H361.37l.912,3.014-.912,2.154h10.366Z" transform="translate(-296.698 -569.327)" fill="#dabea0"/>
          <path id="Path_1439" data-name="Path 1439" d="M534.6,653.98H524.23l.912,3.013-.912,2.154H534.6Z" transform="translate(-394.126 -611.775)" fill="#cbac8b"/>
          <rect id="Rectangle_2223" data-name="Rectangle 2223" width="18.827" height="7.567" transform="translate(117.356 3.781)" fill="#fff"/>
          <rect id="Rectangle_2224" data-name="Rectangle 2224" width="25.167" height="310.113" transform="translate(0 55.74)" fill="#cca67e"/>
          <rect id="Rectangle_2225" data-name="Rectangle 2225" width="20.92" height="310.113" transform="translate(275.917 55.74)" fill="#cca67e"/>
          <rect id="Rectangle_2226" data-name="Rectangle 2226" width="271.67" height="8.069" transform="translate(25.167 55.74)" fill="#dcc2a6"/>
          <rect id="Rectangle_2227" data-name="Rectangle 2227" width="271.67" height="8.069" transform="translate(25.167 202.725)" fill="#dcc2a6"/>
          <rect id="Rectangle_2228" data-name="Rectangle 2228" width="271.67" height="8.069" transform="translate(25.167 326.006)" fill="#dcc2a6"/>
          <rect id="Rectangle_2229" data-name="Rectangle 2229" width="67.645" height="57.629" transform="translate(230.051 202.725) rotate(180)" fill="#c2a280"/>
          <rect id="Rectangle_2230" data-name="Rectangle 2230" width="67.645" height="57.629" transform="translate(263.876 202.725) rotate(180)" fill="#dabea0"/>
          <path id="Path_1440" data-name="Path 1440" d="M688.82,937.312h10.719l-.944-3.117.944-2.225H688.82Z" transform="translate(-492.589 -774.38)" fill="#c2a280"/>
          <path id="Path_1441" data-name="Path 1441" d="M672.859,931.97H662.14l.944,3.117-.944,2.225h10.719Z" transform="translate(-476.628 -774.38)" fill="#dabea0"/>
          <path id="Path_1442" data-name="Path 1442" d="M841.233,1006.99H830.51l.948,3.117-.948,2.229h10.723Z" transform="translate(-577.353 -818.261)" fill="#c2a280"/>
          <rect id="Rectangle_2231" data-name="Rectangle 2231" width="19.466" height="7.824" transform="translate(239.979 149.007)" fill="#fff"/>
          <rect id="Rectangle_2232" data-name="Rectangle 2232" width="67.645" height="57.629" transform="translate(143.242 202.725) rotate(180)" fill="#cbac8b"/>
          <rect id="Rectangle_2233" data-name="Rectangle 2233" width="67.645" height="57.629" transform="translate(177.062 202.725) rotate(180)" fill="#dabea0"/>
          <path id="Path_1443" data-name="Path 1443" d="M388.65,997.972h10.719l-.944-3.113.944-2.229H388.65Z" transform="translate(-313.017 -809.861)" fill="#dabea0"/>
          <path id="Path_1444" data-name="Path 1444" d="M472.74,937.312h10.719l-.944-3.117.944-2.225H472.74Z" transform="translate(-363.323 -774.38)" fill="#cbac8b"/>
          <path id="Path_1445" data-name="Path 1445" d="M456.779,931.97H446.06l.944,3.117-.944,2.225h10.719Z" transform="translate(-347.362 -774.38)" fill="#dabea0"/>
          <path id="Path_1446" data-name="Path 1446" d="M625.159,1006.99H614.44l.944,3.117-.944,2.229h10.719Z" transform="translate(-448.093 -818.261)" fill="#cbac8b"/>
          <path id="Path_1447" data-name="Path 1447" d="M625.159,930.14H614.44l.944,3.117-.944,2.225h10.719Z" transform="translate(-448.093 -773.309)" fill="#cbac8b"/>
          <rect id="Rectangle_2234" data-name="Rectangle 2234" width="31.727" height="12.751" transform="translate(116.247 183.802)" fill="#fff"/>
          <rect id="Rectangle_2235" data-name="Rectangle 2235" width="58.469" height="49.809" transform="translate(220.875 325.819) rotate(180)" fill="#cbac8b"/>
          <rect id="Rectangle_2236" data-name="Rectangle 2236" width="58.469" height="49.809" transform="translate(250.108 325.819) rotate(180)" fill="#dabea0"/>
          <path id="Path_1448" data-name="Path 1448" d="M677.39,1247.9h9.265l-.816-2.694.816-1.926H677.39Z" transform="translate(-485.752 -956.473)" fill="#cbac8b"/>
          <path id="Path_1449" data-name="Path 1449" d="M663.595,1243.28H654.33l.82,2.694-.82,1.926h9.265Z" transform="translate(-471.956 -956.473)" fill="#b2916d"/>
          <path id="Path_1450" data-name="Path 1450" d="M809.131,1308.13H799.87l.816,2.694-.816,1.921h9.261Z" transform="translate(-559.023 -994.406)" fill="#dabea0"/>
          <rect id="Rectangle_2237" data-name="Rectangle 2237" width="16.826" height="6.762" transform="translate(229.457 279.389)" fill="#fff"/>
          <rect id="Rectangle_2238" data-name="Rectangle 2238" width="67.645" height="57.629" transform="translate(119.007 325.819) rotate(180)" fill="#cbac8b"/>
          <rect id="Rectangle_2239" data-name="Rectangle 2239" width="67.645" height="57.629" transform="translate(152.832 325.819) rotate(180)" fill="#dabea0"/>
          <path id="Path_1451" data-name="Path 1451" d="M328.34,1294.532h10.719l-.944-3.117.944-2.225H328.34Z" transform="translate(-276.938 -983.327)" fill="#b2916d"/>
          <path id="Path_1452" data-name="Path 1452" d="M412.43,1233.872h10.719l-.944-3.117.944-2.224H412.43Z" transform="translate(-327.243 -947.846)" fill="#cbac8b"/>
          <path id="Path_1453" data-name="Path 1453" d="M396.469,1228.53H385.75l.944,3.117-.944,2.225h10.719Z" transform="translate(-311.283 -947.846)" fill="#b2916d"/>
          <rect id="Rectangle_2240" data-name="Rectangle 2240" width="51.715" height="44.056" transform="translate(122.117 145.097) rotate(180)" fill="#cbac8b"/>
          <rect id="Rectangle_2241" data-name="Rectangle 2241" width="51.715" height="44.056" transform="translate(147.975 145.097) rotate(180)" fill="#dabea0"/>
          <path id="Path_1454" data-name="Path 1454" d="M375.71,868.564H383.9l-.719-2.383.719-1.7H375.71Z" transform="translate(-305.276 -734.902)" fill="#dabea0"/>
          <path id="Path_1455" data-name="Path 1455" d="M439.99,822.194h8.2l-.723-2.382.723-1.7h-8.2Z" transform="translate(-343.731 -707.518)" fill="#cbac8b"/>
          <path id="Path_1456" data-name="Path 1456" d="M427.792,818.11H419.6l.719,2.383-.719,1.7h8.192Z" transform="translate(-331.533 -707.518)" fill="#dabea0"/>
          <path id="Path_1457" data-name="Path 1457" d="M556.516,875.46h-8.2l.723,2.382-.723,1.7h8.2Z" transform="translate(-408.537 -741.064)" fill="#cbac8b"/>
          <rect id="Rectangle_2242" data-name="Rectangle 2242" width="14.881" height="5.981" transform="translate(129.706 104.03)" fill="#fff"/>
          <rect id="Rectangle_2243" data-name="Rectangle 2243" width="51.715" height="44.056" transform="translate(214.519 145.097) rotate(180)" fill="#cbac8b"/>
          <rect id="Rectangle_2244" data-name="Rectangle 2244" width="51.715" height="44.056" transform="translate(240.373 145.097) rotate(180)" fill="#dabea0"/>
          <path id="Path_1458" data-name="Path 1458" d="M605.69,868.564h8.2l-.723-2.383.723-1.7h-8.2Z" transform="translate(-442.858 -734.641)" fill="#dabea0"/>
          <path id="Path_1459" data-name="Path 1459" d="M669.98,822.194h8.192l-.719-2.382.719-1.7H669.98Z" transform="translate(-481.319 -707.518)" fill="#cbac8b"/>
          <path id="Path_1460" data-name="Path 1460" d="M657.776,818.11h-8.2l.723,2.383-.723,1.7h8.2Z" transform="translate(-469.114 -707.518)" fill="#dabea0"/>
          <path id="Path_1461" data-name="Path 1461" d="M786.5,875.46h-8.2l.723,2.382-.723,1.7h8.2Z" transform="translate(-546.119 -741.064)" fill="#cbac8b"/>
          <rect id="Rectangle_2245" data-name="Rectangle 2245" width="14.881" height="5.981" transform="translate(222.109 104.03)" fill="#fff"/>
          <rect id="Rectangle_2246" data-name="Rectangle 2246" width="39.196" height="33.393" transform="translate(88.087 234.769)" fill="#cbac8b"/>
          <rect id="Rectangle_2247" data-name="Rectangle 2247" width="39.196" height="33.393" transform="translate(68.489 234.769)" fill="#dabea0"/>
          <path id="Path_1462" data-name="Path 1462" d="M507.911,1173.6H501.7l.546-1.806-.546-1.291h6.211Z" transform="translate(-380.648 -913.903)" fill="#b2916d"/>
          <path id="Path_1463" data-name="Path 1463" d="M459.181,1138.446H452.97l.546-1.806-.546-1.291h6.211Z" transform="translate(-351.496 -893.342)" fill="#cbac8b"/>
          <path id="Path_1464" data-name="Path 1464" d="M468.43,1135.35h6.211l-.547,1.805.547,1.291H468.43Z" transform="translate(-360.744 -893.342)" fill="#b2916d"/>
          <path id="Path_1465" data-name="Path 1465" d="M370.87,1178.82h6.211l-.55,1.806.55,1.291H370.87Z" transform="translate(-302.381 -918.769)" fill="#cbac8b"/>
          <rect id="Rectangle_2248" data-name="Rectangle 2248" width="11.282" height="4.533" transform="translate(82.334 241.568) rotate(180)" fill="#fff"/>
        </g>
        <path id="Path_1318" data-name="Path 1318" d="M1569.694,1544.325a19.111,19.111,0,0,0-1.016-4.826c-.1-.286-.207-.567-.319-.842-.082-.2-.169-.4-.257-.6s-.208-.445-.317-.66-.243-.471-.374-.7a15.178,15.178,0,0,0-2.221-3.016h0c-.3-.307-.605-.6-.922-.875-.249-.213-.5-.4-.765-.6a11.482,11.482,0,0,0-1.154-.75c-.148-.082-.3-.163-.446-.241a10.368,10.368,0,0,0-4.042-1.128c-.214-.014-.43-.02-.646-.02h-5.84c-6.933,0-12.554,7.113-12.554,15.886s5.621,15.886,12.554,15.886h5.84c.216,0,.432,0,.646-.02a10.331,10.331,0,0,0,4.042-1.13c.15-.076.3-.157.446-.241a11.483,11.483,0,0,0,1.154-.748c.261-.2.516-.39.765-.6.317-.276.626-.567.922-.877h0a15.178,15.178,0,0,0,2.221-3.016q.195-.344.374-.7c.109-.217.216-.436.317-.659s.175-.4.257-.6c.113-.276.22-.557.319-.843a19.132,19.132,0,0,0,1.016-4.826q.064-.8.064-1.625T1569.694,1544.325Z" transform="translate(-1332.208 -1195.319)" fill="#343434"/>
        <path id="Path_1319" data-name="Path 1319" d="M1026.654,860.444h-2.943a1.158,1.158,0,0,0-.5-1.48,1.131,1.131,0,0,0-1.392.766,1.462,1.462,0,0,0-.1.714h-2.879a.346.346,0,0,0-.265.125l-.95,1.136a.371.371,0,0,0-.058.39.35.35,0,0,0,.321.213h7.811a.35.35,0,0,0,.264-.125l.95-1.138a.369.369,0,0,0,.059-.391A.348.348,0,0,0,1026.654,860.444Zm-3.593-.2a.331.331,0,0,1-.447.116.354.354,0,0,1-.14-.454.332.332,0,0,1,.429-.173.379.379,0,0,1,.185.226.394.394,0,0,1-.027.295Z" transform="translate(-912.393 -659.123)" fill="#ffa412"/>
        <path id="Path_1320" data-name="Path 1320" d="M730.678,453.567,721.2,461.24c-.444.718.508.756.092,1.641-3.85,8.166-1.267,16.892,1.993,16.017,2.091-.565,2.682,3.121,2.682,3.121l20.315-16.99S738.82,449.078,730.678,453.567Z" transform="translate(-672.256 -334.661)" fill="#343434"/>
        <path id="Path_1321" data-name="Path 1321" d="M667.028,1102.922l-4.315,1.661s-18.742-26.855-21.049-50.474a37.029,37.029,0,0,1,.617-12.08s-.183-1.08-.5-2.992c-.148-.891-.331-1.965-.539-3.2-.609-3.606-1.448-8.542-2.406-14.161-2.205-12.932-5.061-29.462-7.282-41.625l1.168-.386,12.58-4.191,2.6-8.532,9.366-2.548s2.094,4.223,3.965,24.207c.345,2.614.658,5.51.893,8.647a176.6,176.6,0,0,1-.891,34.99q-.645,5.206-1.645,10.74a49.508,49.508,0,0,0-.358,10.605C660.167,1072.908,667.028,1102.922,667.028,1102.922Z" transform="translate(-601.532 -743.407)" fill="#6877dd"/>
        <path id="Path_1322" data-name="Path 1322" d="M662.117,997.21l-20.34,41.779c-.148-.891-.331-1.965-.539-3.2-.609-3.606-1.448-8.542-2.406-14.161-2.205-12.932-5.061-29.462-7.282-41.625l1.168-.386,12.58-4.191,2.6-8.532,9.366-2.548s2.094,4.223,3.965,24.207C661.568,991.187,661.881,994.077,662.117,997.21Z" transform="translate(-601.532 -743.367)" fill="#5666cf"/>
        <path id="Path_1323" data-name="Path 1323" d="M575.369,950.459l-.471-4.171c-7.889,2.164-28.967-6.049-28.967-6.049s-7.644,6.94-6.639,23.576c.489,8.122,1.384,42.631,2.318,52.838.339,3.7.635,6.332.755,7.386a1.5,1.5,0,0,1-.23.9,48.67,48.67,0,0,0-3.449,7.495c-9.172,25.247,1.413,56.341,1.413,56.341l2.746-1.144s6.022-34.6,10.916-49.89a31.019,31.019,0,0,1,2.357-5.848c2.128-3.547,4.1-9.345,5.894-16.24,3.389-13.035,6.116-29.992,7.93-43.081C570.188,972.6,575.369,950.459,575.369,950.459Z" transform="translate(-523.732 -724.105)" fill="#6877dd"/>
        <path id="Path_1324" data-name="Path 1324" d="M1033.421,930.558c-1.7,1.552-6.205-3.778-6.826-4.486a.36.36,0,0,0-.064-.1l1.362-3.947s5.909-.237,6.888.774S1035.281,928.9,1033.421,930.558Z" transform="translate(-919.632 -709.533)" fill="#ed985f"/>
        <path id="Path_1325" data-name="Path 1325" d="M841.622,738.7l-.584,4.082s-.263,0-.72-.034c-1.436-.1-4.93-.3-8.882-.742-5.942-.6-13-1.687-15.805-3.475-4.282-2.7-11.289-10.965-15.869-19.23a5.442,5.442,0,0,1-.327-.6c-2.384-4.386-4.048-8.737-4.179-12.212a17.968,17.968,0,0,1,.555-5.534,14.283,14.283,0,0,1,2.415-4.991,2.526,2.526,0,0,1,.461-.579,11.2,11.2,0,0,1,3.1-2.733c.779-.336,1.633.069,2.515,1.046v.034a15.5,15.5,0,0,1,2.252,3.443c.033.032.066.066.066.1.164.3.327.642.522,1.006a.8.8,0,0,1,.13.237q.539,1.162,1.078,2.427c4.017,9.049,8.294,22.739,11.854,26.821,1.534,1.754,8.564,5.2,14.139,7.76C838.356,737.35,841.622,738.7,841.622,738.7Z" transform="translate(-733.352 -526.208)" fill="#ed985f"/>
        <path id="Path_1326" data-name="Path 1326" d="M711.278,618.938a23.911,23.911,0,0,1-9.086,2.2c-13.563.768-16.642-11.514-17.2-19.667a11.041,11.041,0,0,1,4.654-.6c.961.056,1.966.157,2.793.263,1.66-.9,4.64-5.244,6.363-12.52l.584.279,9.785,4.754s-1.038,3.29-1.806,6.435c-.6,2.465-1.028,4.844-.669,5.512.779.324,1.234.527,1.234.527a.046.046,0,0,0,0,.01A71.214,71.214,0,0,1,711.278,618.938Z" transform="translate(-644.57 -443.184)" fill="#ffb27d"/>
        <path id="Path_1327" data-name="Path 1327" d="M622.907,675.74c-.1.279-.216.553-.339.832-3.435,7.641-9.794,39.3-9.794,39.3.907,5.691-41.406-1.118-41.515-6.3-1.491-5.5,5.287-14.326,9.109-18.755a12.771,12.771,0,0,0,3.015-7.012c.751-7.346.465-14.231.529-18.418h0c.747-.571,1.47-1.1,2.141-1.609a18.933,18.933,0,0,0,2.608-2.234,4.138,4.138,0,0,0,1.25-2.544,14.006,14.006,0,0,0-.053-2.134c-.031-.338-.074-.678-.123-1.016a29.718,29.718,0,0,0-1.958-6.773c3.638-1.52,10.11-.615,10.11-.615v.979c-.021,2.443,0,8.713.757,9.9.948,1.478,18.283,7.953,19.2,5.946.9-1.971-1.557-11.213-1.66-11.563a.057.057,0,0,1,0-.01c5.8,2.355,7.879,4.332,7.879,4.332C620.546,660.395,625.612,668.326,622.907,675.74Z" transform="translate(-552.806 -490.792)" fill="#2a4e96"/>
        <path id="Path_1328" data-name="Path 1328" d="M768.729,594.726s-1.041,3.286-1.808,6.435c-5.72-1.649-7.457-7.861-7.98-11.191Z" transform="translate(-704.126 -444.271)" fill="#ed985f"/>
        <path id="Path_1329" data-name="Path 1329" d="M766.583,528.742S752.9,525.471,755,516.693s1.752-15.106,10.581-13.386,9.717,5.5,9.7,8.6S770.2,529.362,766.583,528.742Z" transform="translate(-700.776 -374.809)" fill="#ffb27d"/>
        <path id="Path_1330" data-name="Path 1330" d="M761.848,497.511c-1.471-3.179-3.2-3.016-4.282-2.445-6.423-6.147-16.177-3.059-16.177-3.059-2.427,6.059-4.249,10.469-4.249,10.469s2.1,2.224,8.2,2.174a9.83,9.83,0,0,0,5.434-2.113,32.884,32.884,0,0,1-7.136,5.5c7.628-1.508,12.743-10.632,13.267-11.6a11.593,11.593,0,0,1,1.987,4.856c.14,2.413-.662,7.086.673,7.263C759.557,508.553,764.053,502.281,761.848,497.511Z" transform="translate(-686.57 -365.387)" fill="#343434"/>
        <path id="Path_1331" data-name="Path 1331" d="M834.093,697.18s3.3,5.938,3.788,7.466c0,0-4.272-.169-6,3.217C831.888,707.872,831.47,697.98,834.093,697.18Z" transform="translate(-762.854 -529.922)" fill="#2a4e96"/>
        <path id="Path_1332" data-name="Path 1332" d="M645.251,758.269c-8.344-.09-15.412-9.049-19.731-16.2a12.675,12.675,0,0,0,1.732-5.228c.751-7.346.465-14.231.529-18.418h0c.747-.571,1.47-1.1,2.141-1.609a18.913,18.913,0,0,0,2.608-2.234C639.365,726.529,656.562,758.393,645.251,758.269Z" transform="translate(-596.676 -543.823)" fill="#1f437c"/>
        <path id="Path_1333" data-name="Path 1333" d="M553.047,1640.2H531.315a12.718,12.718,0,0,1,.613-6.018c1.088-2.49,2.791-3.62,2.384-6.636a7.7,7.7,0,0,0,6.773,2.676c.389.646,2.484,4.1,3.77,5.049C546.277,1636.331,552.611,1635.955,553.047,1640.2Z" transform="translate(-520.711 -1273.205)" fill="#233862"/>
        <path id="Path_1334" data-name="Path 1334" d="M792.323,1644.2H770.589s-.812-3.582.615-6.019c1.263-2.156.779-3.384-.156-5.168a8.216,8.216,0,0,0,3.659.714,7.49,7.49,0,0,0,3.233-1.177,79.485,79.485,0,0,0,6.192,6.721C785.553,1640.326,791.894,1639.95,792.323,1644.2Z" transform="translate(-713.323 -1277.199)" fill="#233862"/>
        <path id="Path_1335" data-name="Path 1335" d="M899.516,870.69,878.37,899.11l.313.4,21.446-28.472Z" transform="translate(-800.31 -668.541)" fill="#233862"/>
        <path id="Path_1336" data-name="Path 1336" d="M901.387,872.67h21.459l-22.466,28.418h-20.4Z" transform="translate(-801.607 -670.123)" fill="#2b478b"/>
        <path id="Path_1337" data-name="Path 1337" d="M697.6,713.543c-.06-1.132-1.5-1.08-2.6-1.084a20.211,20.211,0,0,1-6.277-.786s5.242-.078,4.128-1.788c-.195-.312-2.809-.076-5.717-.076a9.962,9.962,0,0,0-3.988,1.768c-2.108-.288-4.023-.71-4.644-.849h0c-1.436-.8-3.167-1.788-4.995-2.867a145.477,145.477,0,0,1-12.932-8.3,16.1,16.1,0,0,1-4.017-3.744,47.5,47.5,0,0,1-2.743-6.58c-.522-1.484-1.076-3.1-1.633-4.826-.973-2.833-1.958-5.9-2.97-8.973-1.83-5.6-3.788-11.235-5.645-15.586a30.81,30.81,0,0,0-3.494-6.377c-.882-1.114-1.73-1.687-2.546-1.552-.132.034-.23.068-.327.1,0,0-4.7,1.351-4.769,11.134a15.671,15.671,0,0,0,.033,1.719,37.057,37.057,0,0,0,.882,6.107,93.772,93.772,0,0,0,3.723,12.819c.457,1.206.913,2.463,1.4,3.712,3.527,9.049,8.066,17.474,11.887,20.342a4.185,4.185,0,0,0,.457.338,33.815,33.815,0,0,0,6.661,3.068c3.854,1.351,8.424,2.564,12.508,3.577h.031c2.384.539,4.572,1.046,6.4,1.408,0,0,.3.079.833.187l.243.05a71.238,71.238,0,0,1,8.654,2.733,8.477,8.477,0,0,0,9.732-2.16A5.656,5.656,0,0,0,697.6,713.543Z" transform="translate(-602.232 -493.75)" fill="#ffb27d"/>
        <path id="Path_1338" data-name="Path 1338" d="M643.516,659.783c-6.285-1.792-11.136,3.28-11.136,3.28.08-9.767,4.792-11.1,4.792-11.1C639.058,651.148,643.062,653.334,643.516,659.783Z" transform="translate(-602.201 -493.666)" fill="#2a4e96"/>
        <path id="Path_1339" data-name="Path 1339" d="M740.67,430.129a16.61,16.61,0,0,0-7.98-.117c-.22.056-.438.117-.652.183h0c-8.5,2.626-10.643,12.8-10.643,12.8a27.521,27.521,0,0,0-.265,3.821c.09,1.152,8.189,4.138,9.417,2.652a10.7,10.7,0,0,1,3.6-2.451s8.29,3.646,8.849,3.889c1.876.816,7.957,1.679,7.957,1.679C751.152,452.038,756.452,433.861,740.67,430.129Z" transform="translate(-673.664 -316.135)" fill="#343434"/>
        <path id="Path_1340" data-name="Path 1340" d="M801,454.823a30.467,30.467,0,0,0-5-3.4,23.542,23.542,0,0,1-8.459-.147c-.759-3.871-3.517-13.692-10.415-19.769l-.06-.054c-.272.129-.4.153-.584.237h0a1.843,1.843,0,0,0-.195.1c5.839,4.517,8.249,15.136,8.965,19.013a39.107,39.107,0,0,1-6.665-2.282s6.164,6.793,21.973,7.525A.7.7,0,0,0,801,454.823Z" transform="translate(-718.099 -317.628)" fill="#606060"/>
        <path id="Path_1341" data-name="Path 1341" d="M987.01,870.69h21.582l.452.4H987.584Z" transform="translate(-887.804 -668.541)" fill="#233862"/>
        <path id="Path_1342" data-name="Path 1342" d="M1656.234,1525.077h-38.861a1.514,1.514,0,0,1,0-3.017h38.861a1.514,1.514,0,0,1,0,3.017Z" transform="translate(-1394.355 -1188.927)" fill="#474747"/>
        <path id="Path_1343" data-name="Path 1343" d="M1654.723,1294.076H1615.09a1.509,1.509,0,0,1,0-3.016h39.633a1.509,1.509,0,0,1,0,3.016Z" transform="translate(-1392.457 -1004.379)" fill="#474747"/>
        <path id="Path_1344" data-name="Path 1344" d="M1938.519,702.648c2.352.561,12.975.694,20.438-1.038a22.259,22.259,0,0,0,4.152-1.337,6.405,6.405,0,0,0,3.005-2.345c.843-1.452,2.386-6.421,4.2-12.936,5-17.947,12.027-47.6,12.027-47.6s-14.118,2.976-17.105,5.518-5.627,42.852-8.436,43.942c-.415.161-1.129.5-2.044.965l-.134.066c-.547.278-1.168.6-1.826.953-5.828,3.095-15.474,8.671-16.475,9.91C1935,700.379,1935.091,701.831,1938.519,702.648Z" transform="translate(-1651.705 -482.155)" fill="#2a4e96"/>
        <path id="Path_1345" data-name="Path 1345" d="M2090,660.34a11.953,11.953,0,0,1,.195-2.063c1.816-10.32,16.263-20.887,16.545-20.887v.215c0,1.577,2.407,4.488,6.114,4.738,4.4.3,9.826-2.294,9.826-4.911.027,0,2.472.342,3.309.436,3.525.414,10.559,2.381,13.573,4.734,2.865,2.236-1.183,16.339-3.7,26.323-1.063,4.223-1.845,7.712-1.717,9.25.063.754.72,11,1.3,20.274.487,7.641.923,14.629.937,15.07.031.869-4.149,3.911-11.171,6.21a53.319,53.319,0,0,1-5.569,1.492,57.314,57.314,0,0,1-12.113,1.243,40.366,40.366,0,0,1-4.12-.215C2093.382,721.236,2089.947,709.43,2090,660.34Z" transform="translate(-1776.103 -482.155)" fill="#2a4e96"/>
        <path id="Path_1346" data-name="Path 1346" d="M2191.729,586a90.68,90.68,0,0,0-.5-12.838l-15.486,2.614s-.018,4.887.051,10.3c-.01,0-.42,5.027,5.57,5.759S2191.891,589.875,2191.729,586Z" transform="translate(-1845.156 -430.841)" fill="#ffb27d"/>
        <path id="Path_1466" data-name="Path 1466" d="M2191.652,585.981a90.433,90.433,0,0,0-.424-12.822l-15.486,2.614s-.048,4.844.021,10.261c-.01,0-.39,5.07,5.6,5.8S2191.813,589.858,2191.652,585.981Z" transform="translate(-1845.157 -440.534)" fill="#ed985f"/>
        <path id="Path_1347" data-name="Path 1347" d="M2081.254,1633.618c1.947-1.236.8-10.412.8-10.412s-9.121-7.481-10.349-1.721-8.609,8.369-12.811,9.091c-2.9.5-3.973,2.047-4.247,3.032Z" transform="translate(-1747.636 -1266.618)" fill="#233862"/>
        <path id="Path_1348" data-name="Path 1348" d="M2264.21,766.7c0,15.343,7.2,11.209,11.542,7.064-.584-9.27-1-42.11-1-42.11S2264.21,744.723,2264.21,766.7Z" transform="translate(-1916.406 -557.461)" fill="#1f437c"/>
        <path id="Path_1349" data-name="Path 1349" d="M2024.22,793.54c.288,2.152,3.58,8.418,6.161,12.775a22.242,22.242,0,0,0,4.152-1.337,6.406,6.406,0,0,0,3.005-2.345c.843-1.452,2.386-6.421,4.2-12.936-1.343-8.018-2.618-15.936-2.618-15.936l-.389-5.311c0,.4-6.02,23.743-8.745,24.288a9.367,9.367,0,0,1-3.8-.217l-.135.066C2025.5,792.864,2024.886,793.186,2024.22,793.54Z" transform="translate(-1723.128 -586.861)" fill="#1f437c"/>
        <path id="Path_1350" data-name="Path 1350" d="M2224.9,1633.618c1.947-1.236.8-10.412.8-10.412s-9.121-7.481-10.351-1.721-8.608,8.369-12.812,9.091c-2.9.5-3.955,2.047-4.229,3.032Z" transform="translate(-1863.333 -1266.618)" fill="#233862"/>
        <path id="Path_1351" data-name="Path 1351" d="M2177.219,475.56s10.338-16.839-9.512-17.953c0,0-7.445.9-9.13-.836,0,0-5.776,9.067-.39,18.79S2177.219,475.56,2177.219,475.56Z" transform="translate(-1829.17 -337.856)" fill="#343434"/>
        <path id="Path_1352" data-name="Path 1352" d="M2169.744,513.68c1.5,1.223,5.915,2.437,7.192,2.58,0,0,6.542-1.508,7.731-2.248,1.841-1.154,1.723-3.489,1.818-6.734.113-3.843.488-6.859.072-9.075-.493-2.648-2.12-4.156-6.673-4.567-8.356-.748-11.838,1.408-11.984,4.307-.037.778-.072,1.518-.1,2.222C2167.47,509.192,2168.166,512.394,2169.744,513.68Z" transform="translate(-1838.698 -367.189)" fill="#ffb27d"/>
        <path id="Path_1354" data-name="Path 1354" d="M2130.992,796.475c.031.869-4.15,3.911-11.17,6.212-.567.185-1.153.364-1.752.537a.02.02,0,0,0-.014.018c-.656,7.939-2.429,19.154-4.027,29.977h0c-.415,2.815-.815,5.584-1.186,8.271a170.81,170.81,0,0,0-1.785,18.263v.05c-.033,2.14,1.715,7.48,1.845,8.715.082.754.148,1.552.2,2.389a99.1,99.1,0,0,1-.148,11.508c-1.146,18.4-5.853,41.945-7.532,42.947-3.338,1.995-9.411,0-12.5-.469a2.613,2.613,0,0,1-2.235-2.652c1.508-30.539-2.824-73.07-6.061-99.215q-.128-1.02-.251-2.011c-.389-3.083-.642-5.962-.8-8.558-.148-2.276-.218-4.344-.251-6.135,0-.559-.011-1.092-.016-1.6,0-1.637,1.254-12.351,1.31-61.441h0a2.04,2.04,0,0,1,2-2.063h29.057a4.959,4.959,0,0,1,3.584,1.551,5.3,5.3,0,0,1,1.449,3.724,86.538,86.538,0,0,0,.872,13.964c1.073,6.817,3.369,13.183,8.109,14.716a.021.021,0,0,1,.012,0c.021.05.152.348.36.845h0q.068,1.85.15,3.766c.01.255.021.515.033.772,0,.153.014.3.021.454.011.259.024.521.037.782.02.43.039.863.064,1.3q.026.513.054,1.032.053,1.005.117,2.011c.01.219.024.434.039.654q.082,1.319.179,2.664c.02.276.039.551.06.828,0,.133.02.265.03.4.027.352.052.7.082,1.056s.06.75.091,1.128C2131.124,794.279,2130.957,795.506,2130.992,796.475Z" transform="translate(-1770.709 -565.106)" fill="#42b2fc"/>
        <path id="Path_1355" data-name="Path 1355" d="M2114.053,1137.762c-1.146,18.4-5.853,41.945-7.533,42.947-3.338,1.995-9.411,0-12.5-.468a2.614,2.614,0,0,1-2.234-2.652c1.508-30.54-2.825-73.07-6.061-99.216q-.129-1.02-.251-2.011c-.389-3.083-.642-5.963-.8-8.559,1.54-10.366,10.229-10.921,18.1,10.523C2101.8,1085.447,2114.32,1133.545,2114.053,1137.762Z" transform="translate(-1771.812 -820.452)" fill="#2c9edd"/>
        <path id="Path_1356" data-name="Path 1356" d="M2184.569,1052.974c.24,2.127,2.649,7.185,2.937,8.389,3.984,16.552,1.785,55.8-.195,57.369-3.055,2.429-9.333,1.275-12.457,1.23a2.587,2.587,0,0,1-2.554-2.325c-2.449-31.271-12.6-74.22-19.128-99.487a122.343,122.343,0,0,1-3.752-22.084s30.509-19.3,33.807-8.761C2186.157,996.641,2182.727,1036.64,2184.569,1052.974Z" transform="translate(-1823.959 -759.191)" fill="#42b2fc"/>
        <path id="Path_1357" data-name="Path 1357" d="M2152.848,421.046q.315-.368.67-.712a11.844,11.844,0,0,1,3.634-2.441c5.32-2.292,9.732-.177,12.489,1.991.272.2.527.426.765.637a16.3,16.3,0,0,1,2.336,2.489s2.583,3.642,2.5,11.317l-26.612.29S2148.237,426.33,2152.848,421.046Z" transform="translate(-1823.314 -306.005)" fill="#343434"/>
        <path id="Path_1358" data-name="Path 1358" d="M2240.937,447.3l-1.461.018c-.029-.438.043-10.416,3.644-14.289a5.177,5.177,0,0,1,.454.386C2240.159,436.817,2240.937,447.189,2240.937,447.3Z" transform="translate(-1896.484 -318.89)" fill="#606060"/>
        <path id="Path_1359" data-name="Path 1359" d="M2156.239,448.149a43.486,43.486,0,0,0-3.178-13.674,6.214,6.214,0,0,1,.49-.535c.424.754,3.893,7.4,4.261,14.187l17.459-.2s-8.847,2.049-14.186,2.117-12.426-1.824-12.426-1.824Z" transform="translate(-1823.347 -319.617)" fill="#606060"/>
        <path id="Path_1360" data-name="Path 1360" d="M2240.848,640.5s-8.992,10.821-9.518,20.264l4.58.249a46.44,46.44,0,0,1,7.92-19.868s-1.059-.263-1.411-.336C2241.948,640.713,2240.848,640.5,2240.848,640.5Z" transform="translate(-1889.926 -484.64)" fill="#42b2fc"/>
        <path id="Path_1361" data-name="Path 1361" d="M2116.425,639.76a48.411,48.411,0,0,0-7.132,20.616l-4.623-.082c.38-7.422,4.893-15.586,7.385-19.453C2112.055,640.84,2115.245,640.009,2116.425,639.76Z" transform="translate(-1787.92 -484.049)" fill="#42b2fc"/>
        <path id="Path_1362" data-name="Path 1362" d="M2284.384,701.123c-.226,11.08,1.11,33.144,1.11,33.144h6.328c2.988-15.524,4.043-25.512,4.043-30.968q0-1.608-.014-3c-.039-4.653-.162-7.354-.162-7.354,1.188-28.189-4.263-43.262-5.973-45.338s-9.537-3.941-9.537-3.941a114.109,114.109,0,0,0-3.643,14.052c-1.055,6.264,8.294,32.576,7.911,41.583C2284.416,699.874,2284.4,700.48,2284.384,701.123Z" transform="translate(-1926.266 -487.172)" fill="#2a4e96"/>
        <path id="Path_1363" data-name="Path 1363" d="M2304.357,957.615s-1.335-22.064-1.11-33.144a21.614,21.614,0,0,1,11.467-.8q.011,1.384.014,3c0,5.448-1.055,15.436-4.043,30.968,1.318,5.721,1.23,11.894-1.055,12.984s-9.841-3-9.753-4.812S2304.357,957.615,2304.357,957.615Z" transform="translate(-1945.13 -710.521)" fill="#ffb27d"/>
        <path id="Path_1364" data-name="Path 1364" d="M1877.116,904.336c.617-2.337,1.075-3.632,2.632-4.766,2.264-1.649,4.95-1.206,6.951-.841a7.449,7.449,0,0,0,3.805-.519c3.544-2.441,12.443-7.474,16.876-9.731,3.023,1.81,6.738,5.4,8.486,12.391-6.812,3.107-21.747,3.052-24.589,2.375,0,0-2.632,1.975-4.635,2.158a6.76,6.76,0,0,1-2.606-.469,3.481,3.481,0,0,0-3.928,1.289,2.9,2.9,0,0,1-2.531,1.241C1876.752,907.465,1876.728,905.808,1877.116,904.336Z" transform="translate(-1604.462 -682.754)" fill="#ed985f"/>
        <path id="Path_1365" data-name="Path 1365" d="M1629.6,1105.549h-47.137c-.806,0-2.612-.674-2.612-1.508s6.063-1.508,6.869-1.508h39.96V974.841a9.317,9.317,0,0,1,9.148-9.451h10.217a1.509,1.509,0,0,1,0,3.017h-10.217a6.334,6.334,0,0,0-6.228,6.435Z" transform="translate(-1365.252 -744.198)" fill="#474747"/>
        <path id="Path_1366" data-name="Path 1366" d="M1477.923,1105.549H1443.73a1.509,1.509,0,0,1,0-3.016H1475V974.841a9.318,9.318,0,0,1,9.148-9.451h10.217a1.509,1.509,0,0,1,0,3.017h-10.217a6.334,6.334,0,0,0-6.229,6.435Z" transform="translate(-1254.451 -744.198)" fill="#474747"/>
        <path id="Path_1367" data-name="Path 1367" d="M1656.021,1064.076h-39a1.514,1.514,0,0,1,0-3.016h39a1.514,1.514,0,0,1,0,3.016Z" transform="translate(-1394.074 -820.63)" fill="#474747"/>
        <path id="Path_1368" data-name="Path 1368" d="M1870,965.417h-12.617a2.515,2.515,0,0,1,0-5.027H1870a2.515,2.515,0,0,1,0,5.027Z" transform="translate(-1586.806 -740.203)" fill="#343434"/>
        <path id="Path_1369" data-name="Path 1369" d="M1829.993,965.39a9.266,9.266,0,0,0-9.053,8.078h2.966a6.294,6.294,0,0,1,6.087-5.061,1.509,1.509,0,0,0,0-3.016Z" transform="translate(-1559.416 -744.198)" fill="#474747"/>
        <path id="Path_1370" data-name="Path 1370" d="M1660,965.417h-12.616a2.515,2.515,0,0,1,0-5.027H1660a2.515,2.515,0,0,1,0,5.027Z" transform="translate(-1417.681 -740.203)" fill="#343434"/>
        <path id="Path_1371" data-name="Path 1371" d="M1619.993,965.39a9.267,9.267,0,0,0-9.053,8.078h2.966a6.294,6.294,0,0,1,6.087-5.061,1.509,1.509,0,0,0,0-3.016Z" transform="translate(-1390.29 -744.198)" fill="#474747"/>
        <g id="Group_509" data-name="Group 509" transform="translate(191.88 288.378)">
          <g id="Group_510" data-name="Group 510" transform="translate(4.415)">
            <rect id="Rectangle_2192" data-name="Rectangle 2192" width="38.122" height="32.476" transform="translate(19.061)" fill="#b9956f"/>
            <rect id="Rectangle_2193" data-name="Rectangle 2193" width="38.122" height="32.476" transform="translate(0)" fill="#dabea0"/>
            <path id="Path_1296" data-name="Path 1296" d="M1039.4,1479.548h-6.039l.531-1.755-.531-1.252h6.039Z" transform="translate(-982.239 -1455.31)" fill="#dabea0"/>
            <path id="Path_1297" data-name="Path 1297" d="M958.062,1420.871H952.02l.534-1.756-.534-1.255h6.042Z" transform="translate(-919.939 -1410.82)" fill="#c2a280"/>
            <path id="Path_1298" data-name="Path 1298" d="M977.83,1417.86h6.042l-.534,1.756.534,1.255H977.83Z" transform="translate(-939.708 -1410.82)" fill="#dabea0"/>
            <path id="Path_1299" data-name="Path 1299" d="M814.97,1490.43h6.039l-.531,1.756.531,1.255H814.97Z" transform="translate(-814.97 -1465.84)" fill="#c2a280"/>
            <rect id="Rectangle_2194" data-name="Rectangle 2194" width="10.971" height="4.409" transform="translate(13.467 6.612) rotate(180)" fill="#fff"/>
          </g>
          <g id="Group_511" data-name="Group 511" transform="translate(0 32.476)">
            <rect id="Rectangle_2195" data-name="Rectangle 2195" width="44.005" height="37.49" transform="translate(44.005 37.49) rotate(180)" fill="#d8702a"/>
            <rect id="Rectangle_2196" data-name="Rectangle 2196" width="44.005" height="37.49" transform="translate(66.013 37.49) rotate(180)" fill="#ff9e55"/>
            <path id="Path_1300" data-name="Path 1300" d="M896.46,1365.756h6.973l-.618-2.027.618-1.449H896.46Z" transform="translate(-896.433 -1337.773)" fill="#c15e1b"/>
            <path id="Path_1301" data-name="Path 1301" d="M945.18,1330.606h6.973l-.613-2.027.613-1.449H945.18Z" transform="translate(-923.177 -1319.003)" fill="#ffb27d"/>
            <path id="Path_1302" data-name="Path 1302" d="M936.693,1327.13H929.72l.613,2.027-.613,1.449h6.973Z" transform="translate(-914.691 -1319.003)" fill="#c15e1b"/>
            <path id="Path_1303" data-name="Path 1303" d="M1034.264,1370.6h-6.974l.614,2.027-.614,1.449h6.974Z" transform="translate(-968.251 -1342.216)" fill="#c2a280"/>
            <rect id="Rectangle_2197" data-name="Rectangle 2197" width="12.666" height="5.089" transform="translate(50.465 2.544)" fill="#fff"/>
          </g>
        </g>
        <path id="Path_1375" data-name="Path 1375" d="M1776.164,1530.06h-5.839c-6.933,0-12.555,7.113-12.555,15.886s5.621,15.886,12.555,15.886h5.839c6.933,0,12.554-7.112,12.554-15.886S1783.1,1530.06,1776.164,1530.06Z" transform="translate(-1508.541 -1195.319)" fill="#343434"/>
        <ellipse id="Ellipse_14" data-name="Ellipse 14" cx="12.554" cy="15.886" rx="12.554" ry="15.886" transform="translate(255.068 334.741)" fill="#474747"/>
        <path id="Path_1376" data-name="Path 1376" d="M1827.341,1569.114c0,5.552-3.556,10.055-7.945,10.055s-7.946-4.5-7.946-10.055,3.556-10.054,7.946-10.054S1827.341,1563.56,1827.341,1569.114Z" transform="translate(-1551.773 -1218.488)" fill="#343434"/>
        <path id="Path_1380" data-name="Path 1380" d="M1920.2,957.89s-4.736,3.33-5.989,2.51.876-2.68-1.135-3.35S1920.2,957.89,1920.2,957.89Z" transform="translate(-1633.383 -737.398)" fill="#d9935c"/>
        <g id="Group_508" data-name="Group 508" transform="translate(85.074 277.911)">
          <rect id="Rectangle_2192-2" data-name="Rectangle 2192" width="65.432" height="55.74" transform="translate(32.716 32.815)" fill="#d8702a"/>
          <rect id="Rectangle_2193-2" data-name="Rectangle 2193" width="65.432" height="55.74" transform="translate(0 32.815)" fill="#ff9e55"/>
          <path id="Path_1296-2" data-name="Path 1296" d="M1043.725,1481.7H1033.36l.912-3.014-.912-2.15h10.365Z" transform="translate(-945.618 -1407.285)" fill="#c15e1b"/>
          <path id="Path_1297-2" data-name="Path 1297" d="M962.39,1423.028H952.02l.916-3.013-.916-2.154h10.37Z" transform="translate(-896.958 -1372.962)" fill="#ffb27d"/>
          <path id="Path_1298-2" data-name="Path 1298" d="M977.83,1417.86H988.2l-.916,3.013.916,2.154H977.83Z" transform="translate(-912.398 -1372.962)" fill="#c15e1b"/>
          <path id="Path_1299-2" data-name="Path 1299" d="M814.97,1490.43h10.366l-.912,3.014.912,2.154H814.97Z" transform="translate(-814.97 -1415.41)" fill="#ffb27d"/>
          <rect id="Rectangle_2194-2" data-name="Rectangle 2194" width="18.831" height="7.567" transform="translate(23.114 44.164) rotate(180)" fill="#fff"/>
          <rect id="Rectangle_2195-2" data-name="Rectangle 2195" width="39.196" height="33.393" transform="translate(71.912 33.393) rotate(180)" fill="#b9956f"/>
          <rect id="Rectangle_2196-2" data-name="Rectangle 2196" width="39.196" height="33.393" transform="translate(91.514 33.393) rotate(180)" fill="#dabea0"/>
          <path id="Path_1300-2" data-name="Path 1300" d="M896.46,1365.376h6.211l-.55-1.806.55-1.291H896.46Z" transform="translate(-863.72 -1340.451)" fill="#dabea0"/>
          <path id="Path_1301-2" data-name="Path 1301" d="M945.18,1330.226h6.211l-.546-1.805.546-1.291H945.18Z" transform="translate(-892.866 -1319.891)" fill="#c2a280"/>
          <path id="Path_1302-2" data-name="Path 1302" d="M935.931,1327.13H929.72l.546,1.805-.546,1.291h6.211Z" transform="translate(-883.617 -1319.891)" fill="#dabea0"/>
          <path id="Path_1303-2" data-name="Path 1303" d="M1033.5,1370.6h-6.211l.546,1.805-.546,1.291h6.211Z" transform="translate(-941.987 -1345.318)" fill="#c2a280"/>
          <rect id="Rectangle_2197-2" data-name="Rectangle 2197" width="11.282" height="4.533" transform="translate(77.666 2.266)" fill="#fff"/>
        </g>
      </g>
      <g id="Group_109507" data-name="Group 109507" transform="translate(1984.927 314.697)">
        <path id="Path_77" data-name="Path 77" d="M1722.62,1308.53h12.957l-1.14,3.769,1.14,2.691H1722.62Z" transform="translate(-1669.276 -1176.331)" fill="#e3f0ff"/>
        <rect id="Rectangle_178" data-name="Rectangle 178" width="23.538" height="9.458" transform="translate(58.703 84.165)" fill="#fff"/>
        <rect id="Rectangle_193" data-name="Rectangle 193" width="50.393" height="42.928" transform="translate(54.279 49.359)" fill="#d8702a"/>
        <rect id="Rectangle_194" data-name="Rectangle 194" width="50.393" height="42.928" transform="translate(79.47 49.359)" fill="#ff9e55"/>
        <path id="Path_108" data-name="Path 108" d="M1729.65,1219.5h7.986l-.707-2.321.707-1.661h-7.986Z" transform="translate(-1675.342 -1138.098)" fill="#c15e1b"/>
        <path id="Path_109" data-name="Path 109" d="M1685.51,1187.651h7.981l-.7-2.32.7-1.661h-7.981Z" transform="translate(-1606.035 -1125.006)" fill="#ffb27d"/>
        <path id="Path_110" data-name="Path 110" d="M1707.5,1183.67h-7.987l.7,2.321-.7,1.66h7.987Z" transform="translate(-1628.021 -1125.006)" fill="#c15e1b"/>
        <path id="Path_111" data-name="Path 111" d="M1619.1,1223.06h-7.987l.7,2.321-.7,1.661h7.987Z" transform="translate(-1489.228 -1141.198)" fill="#ffb27d"/>
        <rect id="Rectangle_195" data-name="Rectangle 195" width="14.502" height="5.83" transform="translate(112.06 52.268)" fill="#fff"/>
        <path id="Path_112" data-name="Path 112" d="M1633.015,1236.085c1.226-.819,3.991-2.621,4.122-2.19a1.929,1.929,0,0,1-.417,1.354c1.654-.589,3.329-.913,7.223,0a2.964,2.964,0,0,1,1.881,1.39,1.378,1.378,0,0,1,.235,1.173,1.33,1.33,0,0,1-.765.9c-2.052,1.178-1.443.46-4.293,2.22s-6.271,2.1-8.26.707l-2.713-.589-.166-4.653S1631.424,1236.286,1633.015,1236.085Z" transform="translate(-1526.923 -1145.624)" fill="#ffb27d"/>
        <path id="Path_113" data-name="Path 113" d="M1749.042,1145.559s7.736,6.531,15.209,1.726a26.394,26.394,0,0,0,.393-7.874c-.069-.388-.131-.772-.194-1.137-.6-3.6-.855-5.648-.855-5.648h0c-.394-.088-13.271-2.844-13.186-2.426C1752.371,1139.894,1749.042,1145.559,1749.042,1145.559Z" transform="translate(-1713.58 -1103.009)" fill="#ffb27d"/>
        <path id="Path_114" data-name="Path 114" d="M1749.7,1133.642a18.77,18.77,0,0,0,12.433,5.984c-.6-3.6-.855-5.648-.855-5.648h0C1760.923,1133.949,1749.242,1133.059,1749.7,1133.642Z" transform="translate(-1711.267 -1104.361)" fill="#ed975d"/>
        <path id="Path_115" data-name="Path 115" d="M1765.151,1117.588s-12.855,5.89-16.27-2.456-7.376-13.174.685-17.279,10.973-1.626,12.769.866S1768.406,1115.845,1765.151,1117.588Z" transform="translate(-1712.702 -1088.83)" fill="#ffb27d"/>
        <path id="Path_116" data-name="Path 116" d="M1752.9,1112.642c-.165.152-2.89,1.637-10.415-8.581a10.293,10.293,0,0,1-1.072-9.093c1.391-3.775,8.015-7.815,13.716-10.118s7.736.86,9.754,4.04c2.12,3.339,6.88,5.506,6.88,5.506-4.56,3.928-11.464.913-13.459,2.014s-2.126,4.712-2.087,5.848-.034,2.114-2.884,1.637-.5,4.123.1,5.006C1753.411,1108.9,1754.244,1111.328,1752.9,1112.642Z" transform="translate(-1715.829 -1084.061)" fill="#343434"/>
        <path id="Path_117" data-name="Path 117" d="M1825.386,1494.467h-8.312c-1.71,0-3.666-1.767-4.15-5.088s-4.053-5.083-4.828-7.774,3.186-6.478,3.186-6.478l.661-.878.69-.918,6.567,1.6s.16,1.613.262,3.669c.077,1.569.077,3.142,0,4.711-.188,3.593.975,7.462,4.065,8.157S1825.386,1494.467,1825.386,1494.467Z" transform="translate(-1807.995 -1244.075)" fill="#2c3a64"/>
        <path id="Path_118" data-name="Path 118" d="M1730.7,1500.6h-21.964a1.747,1.747,0,0,1-.467-.141c-1.465-.76-1-6.555-.832-8.351.034-.33.063-.525.063-.525s7.719-6.378,8.785-1.5c.034.153.074.3.115.448h0c1.339,4.57,7.33,6.649,10.791,7.227C1729.833,1498.213,1730.523,1499.8,1730.7,1500.6Z" transform="translate(-1655.625 -1250.205)" fill="#2c3a64"/>
        <path id="Path_119" data-name="Path 119" d="M1747.418,1286.811s-1.174,15.115-2.548,33.282c-1.876,24.685-4.128,55.005-4.349,60.746-.388,9.976-1.932,25.91-1.932,25.91s-3.666,3.792-11.008,2.19a268.37,268.37,0,0,1-8.4-46.866c-.033-.4-.062-.8-.091-1.178-1.71-24.532-4.086-79.372-4.086-79.372Z" transform="translate(-1676.773 -1167.245)" fill="#42b2fc"/>
        <path id="Path_120" data-name="Path 120" d="M1750.968,1284.587s.758,9.423-3.465,27.133c-3.1,12.956-20.409,49.164-20.409,49.164-.034-.394-.062-.795-.091-1.178-1.71-24.535-4.435-76.2-4.435-76.2Z" transform="translate(-1684.69 -1166.046)" fill="#2c9edd"/>
        <path id="Path_121" data-name="Path 121" d="M1785.618,1280.4s-22.13,57.551-36.027,83.281-18.242,32.91-18.242,32.91-7.981-3.292-8.688-5.536c0,0,5.318-49.671,14.628-61.78,5.256-6.844,11.436-27.374,11.726-34.553s1.881-21.4,1.881-21.4Z" transform="translate(-1719.339 -1161.862)" fill="#42b2fc"/>
        <path id="Path_122" data-name="Path 122" d="M1760.549,1228.2c-3.1.194-35.766-1.084-35.772-2.945,0-6.555-1.357-17.167-3.015-30.036q-.457-3.6-.713-7.138a112.1,112.1,0,0,1-.04-17.379c.826-9.912,4.9-17.91,9.058-21.638.57-.471,2.56,1.107,5.934,2.521,3.124,1.308,5.592.371,8.4-.436l3.586,3.257a35.01,35.01,0,0,1,7.735,11.19C1755.72,1165.558,1760.822,1228.178,1760.549,1228.2Z" transform="translate(-1693.159 -1110.745)" fill="#2a4e96"/>
        <path id="Path_123" data-name="Path 123" d="M1747.592,1177.13l-8.922,2.144-12.279,34.353a12.184,12.184,0,0,1-11.4,8.21h0l1.077,16.961,39.614,3.069Z" transform="translate(-1685.03 -1122.318)" fill="#42b2fc"/>
        <path id="Path_124" data-name="Path 124" d="M1726.117,1214.339c.284-2.686-1.05-3.187-1.05-3.187s-26.3-6.013-28.5-6.837-20.7-22.279-20.7-22.279-7.052-8.893-13.168-7.238c-5.313,1.443-7.525,5.589-8.374,9.594a12.071,12.071,0,0,0,4.885,12.4c8.819,6.09,26.49,18.092,30.7,19.552,9.377,3.251,34.962,1.632,34.962,1.632a8.657,8.657,0,0,0,1.248-3.639Z" transform="translate(-1620.772 -1121.274)" fill="#2a4e96"/>
        <path id="Path_125" data-name="Path 125" d="M1746.979,1157.774c-2.081-1.99-8.739-7.467-8.739-7.467l1.254-1.261c.889-.194,7.77,5.159,10.067,7.267,2.76,2.539,10.421,10.837,10.421,10.837l-3.756.589S1749.424,1160.125,1746.979,1157.774Z" transform="translate(-1702.585 -1110.771)" fill="#42b2fc"/>
      </g>
    </g>
    <g id="Group_109511" data-name="Group 109511" transform="translate(-168 -33)">
      <circle id="Ellipse_15" data-name="Ellipse 15" cx="11.5" cy="11.5" r="11.5" transform="translate(1133 336)" fill="#5ace75"/>
      <path id="Path_1487" data-name="Path 1487" d="M1138.656,349.537l3.459,3.447,7.023-7.478" transform="translate(0.603 -1.512)" fill="none" stroke="#f3f9ff" stroke-linecap="round" stroke-linejoin="round" stroke-width="3"/>
    </g>
  </g>
</svg>
